<?xml version="1.0" encoding="UTF-8" standalone="no"?>
<!DOCTYPE svg PUBLIC "-//W3C//DTD SVG 1.1//EN" "http://www.w3.org/Graphics/SVG/1.1/DTD/svg11.dtd">
<svg version="1.1" xmlns="http://www.w3.org/2000/svg" xmlns:xlink="http://www.w3.org/1999/xlink" preserveAspectRatio="xMidYMid meet" viewBox="0 0 400 250" width="400" height="250"><defs><path d="M254.08 125L318.24 237.7L189.91 237.7L61.59 237.7L125.75 125L189.91 12.3L254.08 125Z" id="c90G5Q6OCQ"></path><path d="M103.49 128.64L5.86 79.82" id="b2hbzWmnbD"></path><path d="M110.44 139.19L94.4 139.35L100.69 126.46L106.98 113.57L116.73 126.3L126.47 139.03L110.44 139.19Z" id="b7nV67OBW"></path><path d="M311.32 24.23L305.24 34.59L299.38 25.57L293.53 16.56L305.47 15.21L317.41 13.86L311.32 24.23Z" id="c16og6OO4p"></path><path d="M300.45 24.23L224.67 67.96" id="dWLiOUIg"></path><path d="M316.02 47.38L239.05 93.45" id="b4IIjcgBBq"></path><path d="M330.2 71.42L253.23 117.49" id="c7IYJIjSjH"></path><path d="M343.34 95.49L266.37 141.56" id="d372GnkoQG"></path><path d="M361.37 118.07L280.02 165.04" id="b2FXp7d0D"></path><path d="M377.02 146.51L295.68 193.48" id="boupHJZ9h"></path><path d="M325.7 47.8L319.62 58.16L313.76 49.15L307.91 40.13L319.85 38.79L331.79 37.44L325.7 47.8Z" id="b2kSbXRCl"></path><path d="M340.02 71.41L333.93 81.77L328.08 72.76L322.22 63.74L334.17 62.39L346.11 61.05L340.02 71.41Z" id="c27D3c9tWj"></path><path d="M354.59 94.45L348.5 104.82L342.64 95.8L336.79 86.79L348.73 85.44L360.67 84.09L354.59 94.45Z" id="bfZmI8am"></path><path d="M370.61 118.52L364.52 128.89L358.67 119.87L352.81 110.86L364.76 109.51L376.7 108.16L370.61 118.52Z" id="b4BUQrVwql"></path><path d="M388.05 145.51L381.97 155.87L376.11 146.85L370.26 137.84L382.2 136.49L394.14 135.14L388.05 145.51Z" id="c1bmJJ7YWg"></path></defs><g><g><g><use xlink:href="#c90G5Q6OCQ" opacity="1" fill="#ffffff" fill-opacity="1"></use><g><use xlink:href="#c90G5Q6OCQ" opacity="1" fill-opacity="0" stroke="#000000" stroke-width="5" stroke-opacity="1"></use></g></g><g><g><use xlink:href="#b2hbzWmnbD" opacity="1" fill-opacity="0" stroke="#000000" stroke-width="3" stroke-opacity="1"></use></g></g><g><use xlink:href="#b7nV67OBW" opacity="1" fill="#000000" fill-opacity="1"></use></g><g><use xlink:href="#c16og6OO4p" opacity="1" fill="#f81618" fill-opacity="1"></use></g><g><use xlink:href="#dWLiOUIg" opacity="1" fill="#f81618" fill-opacity="1"></use><g><use xlink:href="#dWLiOUIg" opacity="1" fill-opacity="0" stroke="#f81618" stroke-width="3" stroke-opacity="1"></use></g></g><g><g><use xlink:href="#b4IIjcgBBq" opacity="1" fill-opacity="0" stroke="#faab08" stroke-width="3" stroke-opacity="1"></use></g></g><g><g><use xlink:href="#c7IYJIjSjH" opacity="1" fill-opacity="0" stroke="#f2fd03" stroke-width="3" stroke-opacity="1"></use></g></g><g><g><use xlink:href="#d372GnkoQG" opacity="1" fill-opacity="0" stroke="#03c900" stroke-width="3" stroke-opacity="1"></use></g></g><g><g><use xlink:href="#b2FXp7d0D" opacity="1" fill-opacity="0" stroke="#0097c1" stroke-width="3" stroke-opacity="1"></use></g></g><g><g><use xlink:href="#boupHJZ9h" opacity="1" fill-opacity="0" stroke="#6632bb" stroke-width="3" stroke-opacity="1"></use></g></g><g><use xlink:href="#b2kSbXRCl" opacity="1" fill="#faab08" fill-opacity="1"></use></g><g><use xlink:href="#c27D3c9tWj" opacity="1" fill="#f2fd03" fill-opacity="1"></use></g><g><use xlink:href="#bfZmI8am" opacity="1" fill="#03c900" fill-opacity="1"></use></g><g><use xlink:href="#b4BUQrVwql" opacity="1" fill="#0097c1" fill-opacity="1"></use></g><g><use xlink:href="#c1bmJJ7YWg" opacity="1" fill="#6632bb" fill-opacity="1"></use></g></g></g></svg>